# xmcd CD database file
#
# Track frame offsets:
#	150
#	25625
#	46212
#	64300
#	91850
#	123950
#	136370
#	147035
#	187037
#	213482
#
# Disc length: 2996 seconds
#
# Revision: 3
# Processed by: cddbd v1.5.2PL0 Copyright (c) Steve Scherf et al.
# Submitted via: CDex 1.70beta2
#
DISCID=8a0bb20a
DTITLE=Various Artist - Moments In... Space (Volume I)
DYEAR=1993
DGENRE=New Age
TTITLE0=Derring and Sakaide_The Wind Roses's Secret
TTITLE1=Software_Solar Winds
TTITLE2=Art Forland_Silver Cage
TTITLE3=Mergener and Weisser_Moonly Twigs
TTITLE4=George Bishop_Wings
TTITLE5=G.E.N.E._Coral World
TTITLE6=Patrick Kosmos_Shuttle Lock, Part III
TTITLE7=Mergener and Weisser_Timber Wave Reflections
TTITLE8=Mind Over Matter_Dawn
TTITLE9=Passe Simple_Ofond
EXTD=YEAR: 1993
EXTT0=
EXTT1=
EXTT2=
EXTT3=
EXTT4=
EXTT5=
EXTT6=
EXTT7=
EXTT8=
EXTT9=
PLAYORDER=
